<?xml version="1.0" encoding="utf-8"?>
<!-- Generator: Adobe Illustrator 23.0.1, SVG Export Plug-In . SVG Version: 6.00 Build 0)  -->
<svg version="1.1" id="Layer_1" xmlns="http://www.w3.org/2000/svg" xmlns:xlink="http://www.w3.org/1999/xlink" x="0px" y="0px"
	 viewBox="0 0 1920 969" style="enable-background:new 0 0 1920 969;" xml:space="preserve">
<style type="text/css">
	.st0{fill:#FF9683;stroke:#000000;stroke-miterlimit:10;}
	.st1{fill:#FFD0C7;}
	.st2{fill:#FC886A;}
	.st3{fill:#FF775F;}
	.st4{fill:#BA7670;}
	.st5{fill:#FFB5A6;}
	.st6{fill:#FF9683;}
	.st7{fill:#F68668;}
	.st8{fill:#FFFFFF;}
	.st9{stroke:#000000;stroke-width:0.75;stroke-miterlimit:10;}
	.st10{font-family:'Oxygen', sans-serif;}
	.st11{font-size:16.4265px;}
	.st12{stroke:#000000;stroke-miterlimit:10;}
	.st13{font-size:12.8363px;}
	.st14{font-size:18.5954px;}
</style>
<rect x="0.7" y="-2.4" class="st0" width="1922.5" height="973.7"/>
<g id="XMLID_1_">
	<g>
		<rect x="1852" y="662.4" class="st1" width="13" height="15"/>
		<rect x="1852" y="641.3" class="st1" width="13" height="15"/>
		<path class="st2" d="M1797.1,641.3h-13v15h13V641.3z M1797.1,677.4v-15h-13v15H1797.1z M270.2,711.4L270.2,711.4v11.7v11.3v11.3
			v11.5v11.5h58c7.8,0,15.5,0,23.3,0h201v-69l-58-31v-20h171V672v27.7h54.3h62.8v35h96v-41h6.8h6.8h6.8h6.8h6.8h6.8h6.8h6.8h6.8h6.8
			h6.8h6.8h6.8h6.8h6.8h6.8h6.8h6.8h6.8h6.8h6.8h6.7h6.8h6.8h6.8h8.4h6.8h8.4h0.1h6.8h8.4h0.1v44h49.9h35.8h26.3v-42l18.9-0.1
			l56.9-0.2h0.8l160.4-0.7v-36l24.3-0.1l121.4-0.7l20.3-0.1v16.4v22.6h88v-63.3v-14.7h27.6h205.4v355H2.5v-246h147h8v-33
			c37.6,0,75.2,0,112.7,0v5.2V711.4z M1810.9,641.3v15h13v-15H1810.9z M1810.9,662.4v15h13v-15H1810.9z M1891.8,677.4v-15h-13v15
			H1891.8z M1891.8,656.3v-15h-13v15H1891.8z M1865,677.4v-15h-13v15H1865z M1865,656.3v-15h-13v15H1865z M1758.6,677.4v-15h-13v15
			H1758.6z M1758.6,656.3v-15h-13v15H1758.6z M1731.9,677.4v-15h-13v15H1731.9z M1731.9,656.3v-15h-13v15H1731.9z M1051.9,723.2v-15
			h-13v15H1051.9z M968.5,723.2v-15h-13v15H968.5z M942.2,723.2v-15h-13v15H942.2z M915.7,723.2v-15h-13v15H915.7z M642.2,693.7v-15
			h-13v15H642.2z M642.2,672v-15h-13v15H642.2z M616.3,693.7v-15h-13v15H616.3z M616.3,672v-15h-13v15H616.3z M563.5,672v-15h-13v15
			H563.5z"/>
		<rect x="1878.8" y="662.4" class="st1" width="13" height="15"/>
		<rect x="1878.8" y="641.3" class="st1" width="13" height="15"/>
		<rect x="1810.9" y="662.4" class="st1" width="13" height="15"/>
		<rect x="1810.9" y="641.3" class="st1" width="13" height="15"/>
		<rect x="1784.1" y="662.4" class="st1" width="13" height="15"/>
		<rect x="1784.1" y="641.3" class="st1" width="13" height="15"/>
		<rect x="1745.6" y="662.4" class="st1" width="13" height="15"/>
		<path class="st3" d="M1591.8,591.2V570h-18.3v21.2H1591.8z M1591.8,538.7h-18.3v21.2h18.3V538.7z M1536.9,538.7v21.2h18.3v-21.2
			H1536.9z M1717.1,547.1v71.7h-27.6v14.7H1655v40.8h-53.6v-16.4l-20.3,0.1l-14.5-48h-45.4v-44.1h-0.7c0.4,0,0.7-0.3,0.7-0.7v-41.7
			c0-0.4,0.3-0.7,0.7-0.7l124.3-0.3h70.8v0.9v23c0,0.2,0.1,0.3,0.2,0.5L1717.1,547.1z M1536.9,570v21.2h18.3V570H1536.9z
			 M1701.1,592.1v-21.2h-18.3v21.2H1701.1z M1701.1,560.7v-21.2h-18.3v21.2H1701.1z M1664.6,592.1v-21.2h-18.3v21.2H1664.6z
			 M1664.6,560.7v-21.2h-18.3v21.2H1664.6z"/>
		<rect x="1682.8" y="539.5" class="st1" width="18.3" height="21.2"/>
		<rect x="1646.3" y="570.9" class="st1" width="18.3" height="21.2"/>
		<rect x="1646.3" y="539.5" class="st1" width="18.3" height="21.2"/>
		<rect x="1682.8" y="570.9" class="st1" width="18.3" height="21.2"/>
		<rect x="1536.9" y="570" class="st1" width="18.3" height="21.2"/>
		<rect x="1573.5" y="538.7" class="st1" width="18.3" height="21.2"/>
		<rect x="1573.5" y="570" class="st1" width="18.3" height="21.2"/>
		<rect x="1536.9" y="538.7" class="st1" width="18.3" height="21.2"/>
		<path class="st3" d="M1136.4,594.7v143h-49.9v-44h-0.1c-2.8-4-5.6-8.1-8.4-12.1c-2.3-2.5-4.6-5.1-6.9-7.6
			c-2.8-3.6-5.6-7.2-8.4-10.8c-2.3-2.9-4.5-5.8-6.8-8.6h-8.4h-6.8h-6.8h-6.8h-6.7h-6.8h-6.8h-6.8h-6.8h-6.8h-6.8h-6.8h-6.8h-6.8
			h-6.8h-6.8h-6.8h-6.2l-0.3-56.2v-26.4c0-0.1,0-0.3,0.1-0.4l203.3-0.3c0.1,0.1,0.1,0.2,0.1,0.4V594.7z M1070.7,625.1v-15h-13v15
			H1070.7z M1070.7,601.1v-15h-13v15H1070.7z M1045.4,625.1v-15h-13v15H1045.4z M1045.4,601.1v-15h-13v15H1045.4z M1019.7,625.1v-15
			h-13v15H1019.7z M1019.7,601.1v-15h-13v15H1019.7z M993.1,625.1v-15h-13v15H993.1z M993.1,601.1v-15h-13v15H993.1z"/>
		<path class="st3" d="M1890.6,547h12.1l0.1-0.3c0.1,0.1,0.2,0.1,0.4,0.1h18.2c0.4,0,0.7,0.3,0.7,0.7l0.5,71.3h-205.4v-71.7l0.2-0.2
			c0.1,0.1,0.3,0.2,0.5,0.2l28-0.3l125-0.4c0,0.4,0.3,0.7,0.7,0.7l18.6-0.3c0.2,0,0.4-0.1,0.5-0.3V547z M1826.9,602.3v-40
			c-5.2-5.5-11.3-8.7-18.7-9c-7.2,0.1-13.3,3.4-18.7,9v40H1826.9z"/>
		<path class="st4" d="M1902.8,546.6l-0.1,0.3h-12.1v-0.5c0.1-0.1,0.1-0.2,0.1-0.4v-12.4c0-0.4,0.3-0.7,0.7-0.7h10.5
			c0.4,0,0.7,0.3,0.7,0.7v12.4C1902.5,546.3,1902.6,546.5,1902.8,546.6z"/>
		<path class="st4" d="M1870.7,523.1v23.3h-5.8v-24h5.1C1870.4,522.4,1870.7,522.7,1870.7,523.1z"/>
		<rect x="1851.8" y="522.4" class="st4" width="6.6" height="24"/>
		<rect x="1838.4" y="522.4" class="st4" width="6.6" height="24"/>
		<rect x="1825.3" y="522.4" class="st4" width="6.6" height="24"/>
		<path class="st5" d="M1826.9,562.3v40h-37.4v-40c5.4-5.6,11.5-8.9,18.7-9C1815.6,553.6,1821.7,556.9,1826.9,562.3z M1824.1,598.6
			v-18.8h-14.4v0.3h-0.4v18.8h14.4v-0.3H1824.1z M1824.1,576.8v-11.3h-30.9v0.3h-0.4v11.3h31v-0.3H1824.1z M1806.7,598.6v-18.8
			h-13.5v0.3h-0.4v18.8h13.6v-0.3H1806.7z"/>
		<polygon class="st5" points="1824.1,579.9 1824.1,598.6 1823.7,598.6 1823.7,580.1 1809.7,580.1 1809.7,579.9 		"/>
		<polygon class="st5" points="1824.1,565.5 1824.1,576.8 1823.7,576.8 1823.7,565.8 1793.1,565.8 1793.1,565.5 		"/>
		<rect x="1809.7" y="580.1" class="st1" width="13.9" height="18.5"/>
		<rect x="1793.1" y="565.8" class="st1" width="30.5" height="11"/>
		<rect x="1812.1" y="522.4" class="st4" width="6.6" height="24"/>
		<polygon class="st5" points="1806.7,579.9 1806.7,598.6 1806.3,598.6 1806.3,580.1 1793.1,580.1 1793.1,579.9 		"/>
		<rect x="1793.1" y="580.1" class="st1" width="13.1" height="18.5"/>
		<rect x="1798.9" y="522.4" class="st4" width="6.6" height="24"/>
		<rect x="1785.8" y="522.4" class="st4" width="6.6" height="24"/>
		<rect x="1772.6" y="522.4" class="st4" width="6.6" height="24"/>
		<rect x="1759.4" y="522.4" class="st4" width="6.6" height="24"/>
		<rect x="1745.6" y="641.3" class="st1" width="13" height="15"/>
		<path class="st4" d="M1752.8,522.4v24h-6.5c0-0.1,0.1-0.2,0.1-0.3v-23c0-0.4,0.3-0.7,0.7-0.7H1752.8z"/>
		<rect x="1718.9" y="662.4" class="st1" width="13" height="15"/>
		<rect x="1718.9" y="641.3" class="st1" width="13" height="15"/>
		<path class="st4" d="M1717.1,508.9v13.5h-70.8c0.4,0,0.7-0.3,0.7-0.7v-12.6c0-0.1,0-0.1,0-0.2c8-23.7,58.5-23.3,70-0.4
			C1717,508.7,1717.1,508.8,1717.1,508.9z"/>
		<path class="st3" d="M1521.3,565.8v44.1h-61.5v48.7l-24.3,0.1v-27.2l-14.5-28.4h-129.7l-16.2,28.4v26.2h-44.9v37.7h44.1l-56.9,0.2
			V539h0.6h6.6h6.6h6.6h6.6h6.6h6.6h6.6h6.6h6.6h6.6h6.6h6.6h6.6h6.6h6.6h6.6h6.6h6.6h6.6h6.6h6.6h6.6h6.6h6.6h107.3v25.8
			c0,0.4,0.3,0.7,0.6,0.7l36.7,0.3H1521.3z M1449.8,590.1v-35.5h-35.5v35.5H1449.8z M1348.9,590.7v-35.5h-35.5v35.5H1348.9z
			 M1265.4,590.5l0-35.5l-35.5,0l0,35.5L1265.4,590.5z"/>
		<polygon class="st4" points="1476.1,509.4 1476.1,538.7 1468.8,538.7 1468.8,509.4 		"/>
		<polygon class="st4" points="1461.6,509.4 1461.6,538.7 1455.1,538.7 1455.1,509.4 		"/>
		<path class="st5" d="M1449.8,554.6v35.5h-35.5v-35.5H1449.8z M1445.3,585.6v-10.5v-5.5v-10.5H1435h-5.5h-10.8v10.5v5.5v10.5h10.8
			h5.5H1445.3z"/>
		<polygon class="st4" points="1448.5,509.4 1448.5,538.7 1441.9,538.7 1441.9,509.4 		"/>
		<rect x="1435" y="575.1" class="st1" width="10.2" height="10.5"/>
		<polygon class="st5" points="1445.3,569.6 1445.3,575.1 1435,575.1 1435,585.6 1429.6,585.6 1429.6,575.1 1418.7,575.1 
			1418.7,569.6 1429.6,569.6 1429.6,559.1 1435,559.1 1435,569.6 		"/>
		<rect x="1435" y="559.1" class="st1" width="10.2" height="10.5"/>
		<polygon class="st4" points="1420.9,603.2 1435.5,631.5 1275.1,631.5 1291.3,603.2 		"/>
		<polygon class="st4" points="1435.3,509.4 1435.3,538.7 1428.7,538.7 1428.7,509.4 		"/>
		<rect x="1418.7" y="575.1" class="st1" width="10.9" height="10.5"/>
		<rect x="1418.7" y="559.1" class="st1" width="10.9" height="10.5"/>
		<rect x="1415.5" y="509.4" class="st4" width="6.6" height="29.2"/>
		<polygon class="st4" points="1408.9,509.5 1408.9,538.7 1402.4,538.7 1402.4,509.5 		"/>
		<polygon class="st4" points="1395.8,509.5 1395.8,538.7 1389.2,538.7 1389.2,509.5 		"/>
		<path class="st5" d="M1390.1,644.6v40.8h-66.4v-40.8H1390.1z M1382.7,680.9v-13.5h-8.8v13.5H1382.7z M1382.7,663.4v-14.2h-8.8
			v14.2H1382.7z M1367.7,680.9v-13.5h-7.6v13.5H1367.7z M1367.7,663.4v-14.2h-7.6v14.2H1367.7z M1353.8,680.9v-13.5h-8v13.5H1353.8z
			 M1353.8,663.4v-14.2h-8v14.2H1353.8z M1339.6,680.9v-13.5h-8.5v13.5H1339.6z M1339.6,663.4v-14.2h-8.5v14.2H1339.6z"/>
		<rect x="1373.9" y="667.4" class="st1" width="8.8" height="13.5"/>
		<rect x="1373.9" y="649.2" class="st1" width="8.8" height="14.2"/>
		<polygon class="st4" points="1382.6,509.5 1382.6,538.7 1376,538.7 1376,509.5 		"/>
		<polygon class="st4" points="1369.4,509.5 1369.4,539 1362.9,539 1362.9,509.5 		"/>
		<rect x="1360" y="667.4" class="st1" width="7.6" height="13.5"/>
		<rect x="1360" y="649.2" class="st1" width="7.6" height="14.2"/>
		<polygon class="st4" points="1356.3,509.5 1356.3,539 1349.7,539 1349.7,509.5 		"/>
		<rect x="1345.8" y="667.4" class="st1" width="7.9" height="13.5"/>
		<rect x="1345.8" y="649.2" class="st1" width="7.9" height="14.2"/>
		<path class="st5" d="M1348.9,555.2v35.5h-35.5v-35.5H1348.9z M1344.4,586.2v-10.5v-5.4v-10.5h-10.2h-5.5h-10.8v10.5v5.4v10.5h10.8
			h5.5H1344.4z"/>
		<rect x="1334.2" y="575.7" class="st1" width="10.2" height="10.5"/>
		<polygon class="st5" points="1344.4,570.2 1344.4,575.7 1334.2,575.7 1334.2,586.2 1328.7,586.2 1328.7,575.7 1317.9,575.7 
			1317.9,570.2 1328.7,570.2 1328.7,559.7 1334.2,559.7 1334.2,570.2 		"/>
		<rect x="1334.2" y="559.7" class="st1" width="10.2" height="10.5"/>
		<polygon class="st4" points="1343.1,509.5 1343.1,539 1336.5,539 1336.5,509.6 		"/>
		<rect x="1331.1" y="667.4" class="st1" width="8.5" height="13.5"/>
		<rect x="1331.1" y="649.2" class="st1" width="8.5" height="14.2"/>
		<polygon class="st4" points="1329.9,509.6 1329.9,539 1323.4,539 1323.4,509.6 		"/>
		<rect x="1317.9" y="575.7" class="st1" width="10.9" height="10.5"/>
		<rect x="1317.9" y="559.7" class="st1" width="10.9" height="10.5"/>
		<polygon class="st4" points="1316.8,509.6 1316.8,539 1310.2,539 1310.2,509.6 		"/>
		<polygon class="st4" points="1303.6,509.6 1303.6,539 1297,539 1297,509.6 		"/>
		<polygon class="st4" points="1290.4,509.6 1290.4,539 1283.8,539 1283.8,509.6 		"/>
		<polygon class="st4" points="1277.3,509.6 1277.3,539 1270.7,539 1270.7,509.6 		"/>
		<path class="st5" d="M1265.4,555l0,35.5l-35.5,0l0-35.5L1265.4,555z M1260.9,586l0-10.5V570v-10.5l-10.2,0h-5.5l-10.8,0l0,10.5
			v5.5l0,10.5l10.8,0h5.5L1260.9,586z"/>
		<path class="st4" d="M1264.1,509.7V539h-6.6v-29.6h5.5c0.1,0.2,0.3,0.3,0.6,0.3H1264.1z"/>
		<path class="st6" d="M1263,509.4h-5.5h-5.6c0.1-0.1,0.1-0.2,0.1-0.4v-17.1c0-0.4,0.3-0.7,0.7-0.7h9.6c0.4,0,0.7,0.3,0.7,0.7V509
			C1262.9,509.1,1263,509.3,1263,509.4z"/>
		<rect x="1250.7" y="575.5" class="st1" width="10.2" height="10.5"/>
		<polygon class="st5" points="1260.9,570 1260.9,575.5 1250.7,575.5 1250.7,586 1245.2,586 1245.2,575.5 1234.4,575.5 
			1234.4,570.1 1245.2,570 1245.2,559.5 1250.7,559.5 1250.7,570 		"/>
		<polygon class="st1" points="1260.9,559.5 1260.9,570 1250.7,570 1250.7,559.5 		"/>
		<rect x="1244.3" y="509.7" class="st4" width="6.6" height="29.3"/>
		<rect x="1234.4" y="575.5" class="st1" width="10.9" height="10.5"/>
		<rect x="1234.4" y="559.5" class="st1" width="10.9" height="10.5"/>
		<path class="st6" d="M1241.2,509.4h-3.4h-6.6h-1.3c0.4,0,0.7-0.3,0.7-0.7v-16.8c0-0.4,0.3-0.7,0.7-0.7h9.3c0.4,0,0.7,0.3,0.7,0.7
			V509C1241.1,509.1,1241.2,509.3,1241.2,509.4z"/>
		<rect x="1231.2" y="509.4" class="st4" width="6.6" height="29.6"/>
		<path class="st4" d="M1224.6,509.4V539h-6.6v-0.4c0-0.1,0-0.2,0-0.2V510c0-0.4,0.3-0.7,0.6-0.7H1224.6z"/>
		<path class="st6" d="M1218,538.5v0.4h-0.6C1217.7,539,1217.9,538.8,1218,538.5z"/>
		<path class="st6" d="M1218,509.4v29.2c-0.1,0.3-0.3,0.4-0.6,0.4h-6c0-8.4,0-16.8,0-25.2C1213.6,512.3,1215.8,510.8,1218,509.4z"/>
		<path class="st3" d="M1217.4,539v156.7l-18.9,0.1v42h-26.3V595.4c0.4,0,0.7-0.3,0.7-0.7v-55.1c0-0.4,0.3-0.7,0.7-0.7h5h6.6h6.6
			h6.6h6.6h6.6H1217.4z"/>
		<path class="st4" d="M1211.4,513.7c0,8.4,0,16.8,0,25.2h-6.6c0-7,0-13.9,0-20.9C1207,516.7,1209.2,515.2,1211.4,513.7z"/>
		<path class="st6" d="M1204.8,518.1c0,7,0,13.9,0,20.9h-6.6c0-5.5,0-11,0-16.5C1200.4,521,1202.6,519.6,1204.8,518.1z"/>
		<path class="st4" d="M1198.3,522.5c0,5.5,0,11,0,16.5h-6.6c0-4,0-8.1,0-12.1C1193.9,525.4,1196.1,524,1198.3,522.5z"/>
		<path class="st6" d="M1191.7,526.9c0,4,0,8.1,0,12.1h-6.6c0-2.6,0-5.1,0-7.7C1187.3,529.8,1189.5,528.3,1191.7,526.9z"/>
		<path class="st4" d="M1185.1,531.3c0,2.6,0,5.1,0,7.7h-6.6c0-1.1,0-2.2,0-3.3C1180.7,534.2,1182.9,532.7,1185.1,531.3z"/>
		<path class="st6" d="M1178.5,535.6c0,1.1,0,2.2,0,3.3h-5C1175.2,537.8,1176.8,536.7,1178.5,535.6z"/>
		<path class="st4" d="M1136.3,571.4L933,571.7c0.1-0.1,0.1-0.2,0.2-0.2l65-38c0.1-0.1,0.2-0.1,0.3-0.1l76.3,0.3
			c0.1,0,0.2,0,0.3,0.1l60.9,37.4C1136.2,571.2,1136.2,571.3,1136.3,571.4z"/>
		<path class="st4" d="M1077.9,681.7c0,4,0,8,0,12.1h-6.8c0-6.6-0.1-13.1-0.1-19.7C1073.4,676.6,1075.7,679.1,1077.9,681.7z"/>
		<rect x="1057.7" y="610.1" class="st1" width="13" height="15"/>
		<rect x="1057.7" y="586.1" class="st1" width="13" height="15"/>
		<path class="st4" d="M1062.7,663.3c0,10.2,0,20.3,0,30.4h-6.8v-39.1C1058.1,657.5,1060.4,660.4,1062.7,663.3z"/>
		<rect x="1038.9" y="708.2" class="st1" width="13" height="15"/>
		<rect x="1040.7" y="654.7" class="st4" width="6.8" height="39.1"/>
		<rect x="1032.4" y="610.1" class="st1" width="13" height="15"/>
		<rect x="1032.4" y="586.1" class="st1" width="13" height="15"/>
		<rect x="1027.2" y="654.7" class="st4" width="6.8" height="39.1"/>
		<rect x="1013.7" y="654.7" class="st4" width="6.8" height="39.1"/>
		<rect x="1006.7" y="610.1" class="st1" width="13" height="15"/>
		<rect x="1006.7" y="586.1" class="st1" width="13" height="15"/>
		<rect x="1000.2" y="654.7" class="st4" width="6.8" height="39.1"/>
		<rect x="986.6" y="654.7" class="st4" width="6.8" height="39.1"/>
		<rect x="980.1" y="610.1" class="st1" width="13" height="15"/>
		<rect x="980.1" y="586.1" class="st1" width="13" height="15"/>
		<rect x="973.1" y="654.7" class="st4" width="6.8" height="39.1"/>
		<rect x="955.5" y="708.2" class="st1" width="13" height="15"/>
		<rect x="959.6" y="654.7" class="st4" width="6.8" height="39.1"/>
		<rect x="946.1" y="654.7" class="st4" width="6.8" height="39.1"/>
		<rect x="929.2" y="708.2" class="st1" width="13" height="15"/>
		<polygon class="st4" points="939.3,654.7 939.3,693.7 932.6,693.7 932.6,654.7 933.2,654.7 		"/>
		<path class="st3" d="M932.8,598.5l0.3,56.2h-0.6h-3.8v-20.6h-15.4v20.6h-1h-6.8h-6.8H892h-6.8h-6.8v39.1v41h-96v-35h-62.8V672
			l0.9-80.6h6.6h6.6h6.6h6.6h6.6h6.6h6.6v0h0.1v0h6.6h6.6v-0.1h0.1v0.1h6.6h6.6v-0.1h0.1v0.1h6.6h6.6h6.6h6.6h6.6h6.6h6.6h6.6h6.6
			h6.6h6.3c-0.1,0.1-0.2,0.3-0.2,0.5v16.5c0,0.4,0.3,0.7,0.7,0.7l47-0.3c0.4,0,0.7-0.3,0.7-0.7v-8.3c0-0.4,0.3-0.7,0.6-0.7h18
			C932.6,599.1,932.8,598.8,932.8,598.5z M913.5,623.9v-14.8h-48.3v14.8H913.5z M801.1,640v-35.5h-35.5V640H801.1z"/>
		<polygon class="st4" points="928.7,634.1 928.7,654.7 925.8,654.7 919,654.7 913.3,654.7 913.3,634.1 		"/>
		<rect x="919" y="654.7" class="st4" width="6.8" height="39.1"/>
		<rect x="902.7" y="708.2" class="st1" width="13" height="15"/>
		<rect x="865.2" y="609.1" class="st4" width="48.3" height="14.8"/>
		<rect x="905.5" y="654.7" class="st4" width="6.8" height="39.1"/>
		<rect x="892" y="654.7" class="st4" width="6.8" height="39.1"/>
		<rect x="878.5" y="654.7" class="st4" width="6.8" height="39.1"/>
		<path class="st4" d="M884.7,590.4c0.2,0.4-0.1,0.9-0.6,0.9h-5.2c0-4.4,0-8.7,0-13.1L884.7,590.4z"/>
		<path class="st4" d="M872.3,564.7c0,8.9,0,17.7,0,26.6h-6.4c0,0-0.1,0-0.2,0c0,0,0,0,0,0c0.2-12.7,0.4-25.4,0.6-38.1
			c2,3.8,4,7.5,5.9,11.3C872.3,564.6,872.3,564.7,872.3,564.7L872.3,564.7z"/>
		<path class="st6" d="M866.3,553.3c-0.2,12.7-0.4,25.4-0.6,38.1v-38h-6.6h-6.6H846h-6.6h-6.6h-2.5c0.4,0,0.7-0.3,0.7-0.7v-14
			c0-0.4-0.3-0.7-0.7-0.7l-3.2,0c-0.4,0-0.7-0.3-0.7-0.7v-5c0-0.4,0.3-0.7,0.7-0.7l19.1,0c0.4,0,0.7,0.3,0.7,0.7v5.1
			c0,0.4-0.3,0.7-0.7,0.7h-2.3c-0.4,0-0.7,0.3-0.7,0.7v13.8c0,0.4,0.3,0.7,0.7,0.7L866.3,553.3z"/>
		<rect x="852.5" y="553.3" class="st4" width="6.6" height="38"/>
		<polygon class="st4" points="846,553.3 846,591.3 839.4,591.3 839.4,553.3 		"/>
		<polygon class="st4" points="832.8,553.3 832.8,591.4 826.2,591.4 826.2,553.3 830.3,553.3 		"/>
		<polygon class="st4" points="819.6,553.3 819.6,591.4 813,591.4 813,553.3 		"/>
		<polygon class="st4" points="806.5,553.3 806.5,591.4 799.9,591.4 799.9,553.3 		"/>
		<path class="st5" d="M801.1,604.4V640h-35.5v-35.5H801.1z M796.6,635.5v-10.5v-5.4v-10.5h-10.2h-5.5H770v10.5v5.4v10.5h10.9h5.5
			H796.6z"/>
		<rect x="786.4" y="624.9" class="st1" width="10.2" height="10.5"/>
		<polygon class="st5" points="796.6,619.5 796.6,624.9 786.4,624.9 786.4,635.5 780.9,635.5 780.9,624.9 770,624.9 770,619.5 
			780.9,619.5 780.9,608.9 786.4,608.9 786.4,619.5 		"/>
		<rect x="786.4" y="608.9" class="st1" width="10.2" height="10.5"/>
		<polygon class="st4" points="793.2,553.3 793.2,591.4 786.6,591.4 786.6,553.3 		"/>
		<rect x="770" y="624.9" class="st1" width="10.9" height="10.5"/>
		<rect x="770" y="608.9" class="st1" width="10.9" height="10.5"/>
		<polygon class="st4" points="779.9,553.3 779.9,591.4 773.3,591.4 773.3,553.3 		"/>
		<polygon class="st4" points="766.7,553.3 766.7,591.4 760.1,591.4 760.1,553.3 		"/>
		<polygon class="st4" points="753.5,553.3 753.5,591.4 746.9,591.5 746.9,553.3 		"/>
		<polygon class="st4" points="740.3,553.3 740.3,591.5 733.8,591.5 733.8,553.3 		"/>
		<polygon class="st4" points="727.2,553.3 727.2,591.5 720.6,591.5 720.6,553.3 721.3,553.3 		"/>
		<path class="st3" d="M721.3,553.3h-0.7v38.2l-0.9,80.6h-54.3v-23.3l-0.4-18.4h-22.8v-14.7v-4.2v-4.5h-14.8v4.5v4.2v14.7h-41v-28.7
			l-0.7-0.4c0.3,0,0.7-0.3,0.7-0.7v-11.7v-0.3v-16.6v-0.9v-10.4V544v-40.6c0-0.4,0.3-0.7,0.7-0.7h132.7c0.4,0,0.7,0.3,0.7,0.7v49.2
			C720.6,553,720.9,553.3,721.3,553.3z M699.4,552.6v-15h-13v15H699.4z M699.4,530.4v-15h-13v15H699.4z M673.4,552.6v-15h-13v15
			H673.4z M673.4,530.4v-15h-13v15H673.4z M647.4,552.6v-15h-13v15H647.4z M647.4,530.4v-15h-13v15H647.4z M619.3,552.6v-15h-13v15
			H619.3z M619.3,530.4v-15h-13v15H619.3z"/>
		<rect x="686.4" y="537.6" class="st1" width="13" height="15"/>
		<rect x="686.4" y="515.4" class="st1" width="13" height="15"/>
		<rect x="660.4" y="537.6" class="st1" width="13" height="15"/>
		<rect x="660.4" y="515.4" class="st1" width="13" height="15"/>
		<polygon class="st4" points="665.1,630.3 665.5,648.7 494.5,648.7 494.6,630.3 586.6,630.3 627.5,630.3 642.4,630.3 		"/>
		<rect x="634.4" y="537.6" class="st1" width="13" height="15"/>
		<rect x="634.4" y="515.4" class="st1" width="13" height="15"/>
		<rect x="627.5" y="611.4" class="st3" width="14.8" height="4.2"/>
		<rect x="629.2" y="678.7" class="st1" width="13" height="15"/>
		<rect x="629.2" y="657" class="st1" width="13" height="15"/>
		<rect x="606.3" y="537.6" class="st1" width="13" height="15"/>
		<rect x="606.3" y="515.4" class="st1" width="13" height="15"/>
		<rect x="603.3" y="678.7" class="st1" width="13" height="15"/>
		<rect x="603.3" y="657" class="st1" width="13" height="15"/>
		<path class="st3" d="M513.9,572.8l6.3,0l6.4,0h6.4l6.4,0h6.3l6.2,0v11.9c0,0.3,0.1,0.5,0.4,0.6l33.3,15.9c0.1,0,0.2,0.1,0.3,0.1
			l0.7,0.4v28.7h-91.9l-0.1,18.4v20H412l-60.5,31v69c-7.8,0-15.5,0-23.3,0v-11.5v-11.5v-11.3v-11.3v-11.6v-0.1v-11.5v-11.6v-0.1
			v-11.5v-11.6V665v-11.6v-11.5v-0.1v-11.5v-11.6h2.8c0.4,0,0.6-0.3,0.6-0.7v-47c0-0.4-0.3-0.7-0.6-0.7l17.3-0.2l0.1,14.9
			c0,0.4,0.3,0.7,0.6,0.7l42.4-0.1c0.4,0,0.6-0.3,0.6-0.7v-12.1l6.6,0h6.4l6.4,0h6.3l6.3,0l6.4,0h6.4l6.4,0h6.4l6.4,0l6.4,0h6.3
			l6.4,0h6.4l6.4,0l6.3,0h6.5l6.3,0H513.9z M430.6,637.2v-35.5H395v35.5H430.6z"/>
		<rect x="571.6" y="571.9" class="st4" width="15" height="16.6"/>
		<rect x="571.6" y="544" class="st4" width="15" height="16.6"/>
		<rect x="550.5" y="657" class="st1" width="13" height="15"/>
		<path class="st6" d="M552.5,699.7v69h-201v-69H552.5z M511.1,753.7V715h-38.6v38.6H511.1z M432.1,753.3v-38.6h-38.6v38.6H432.1z"
			/>
		<polygon class="st4" points="552.5,699.7 351.5,699.7 412,668.7 494.5,668.7 		"/>
		<path class="st4" d="M552,538.2v34.6l-6.2,0v0v-35.2h5.5C551.7,537.6,552,537.8,552,538.2z"/>
		<polygon class="st4" points="539.5,572.8 539.5,572.8 533.1,572.8 533.1,572.8 533.1,537.6 539.5,537.6 		"/>
		<polygon class="st4" points="531.5,518.4 531.5,537.6 526.6,537.6 520.2,537.6 518.6,537.6 518.6,518.4 		"/>
		<polygon class="st4" points="526.6,572.8 526.6,572.8 520.2,572.8 520.2,572.8 520.2,537.6 526.6,537.6 		"/>
		<polygon class="st4" points="513.9,537.6 513.9,572.8 507.5,572.8 507.5,572.8 507.5,537.6 512.2,537.6 		"/>
		<polygon class="st4" points="512.2,518.4 512.2,537.6 507.5,537.6 501.2,537.6 499.2,537.6 499.2,518.4 		"/>
		<path class="st5" d="M511.1,715v38.6h-38.6V715H511.1z M507.4,734v-5.3v-10h-31.1v10v5.3v15.8h31.1V734z"/>
		<rect x="476.3" y="734" class="st1" width="31.1" height="15.8"/>
		<rect x="476.3" y="728.7" class="st5" width="31.1" height="5.3"/>
		<rect x="476.3" y="718.7" class="st1" width="31.1" height="10"/>
		<polygon class="st4" points="501.2,572.8 501.2,572.8 494.6,572.8 494.6,537.6 499.2,537.6 501.2,537.6 		"/>
		<polygon class="st4" points="488.3,572.8 488.3,572.8 481.9,572.8 481.9,572.8 481.9,537.6 488.3,537.6 		"/>
		<polygon class="st4" points="475.5,572.8 475.5,572.8 469,572.9 469,572.8 469,537.6 475.5,537.6 		"/>
		<polygon class="st4" points="462.7,572.8 462.7,572.9 456.3,572.9 456.3,572.8 456.3,537.6 462.7,537.6 		"/>
		<polygon class="st4" points="449.9,572.8 449.9,572.9 443.4,572.9 443.4,572.8 443.4,537.6 449.9,537.6 		"/>
		<polygon class="st4" points="437,572.8 437,572.9 430.6,572.9 430.6,572.8 430.6,537.6 437,537.6 		"/>
		<path class="st5" d="M432.1,714.7v38.6h-38.6v-38.6H432.1z M428.3,733.7v-5.3v-10h-31.1v10v5.3v15.8h31.1V733.7z"/>
		<path class="st5" d="M430.6,601.7v35.5H395v-35.5H430.6z M426.1,632.7v-10.5v-5.5v-10.5h-10.2h-5.5h-10.9v10.5v5.5v10.5h10.9h5.5
			H426.1z"/>
		<rect x="397.3" y="733.7" class="st1" width="31.1" height="15.8"/>
		<rect x="397.3" y="728.4" class="st5" width="31.1" height="5.3"/>
		<rect x="397.3" y="718.3" class="st1" width="31.1" height="10"/>
		<rect x="415.8" y="622.2" class="st1" width="10.2" height="10.5"/>
		<polygon class="st5" points="426.1,616.7 426.1,622.2 415.8,622.2 415.8,632.7 410.4,632.7 410.4,622.2 399.5,622.2 399.5,616.7 
			410.4,616.7 410.4,606.2 415.8,606.2 415.8,616.7 		"/>
		<rect x="415.8" y="606.2" class="st1" width="10.2" height="10.5"/>
		<polygon class="st4" points="424.1,572.8 424.1,572.9 417.8,572.9 417.8,572.8 417.8,537.6 424.1,537.6 		"/>
		<polygon class="st4" points="411.5,572.8 411.5,572.9 405.1,572.9 405.1,572.8 405.1,537.6 411.5,537.6 		"/>
		<rect x="399.5" y="622.2" class="st1" width="10.9" height="10.5"/>
		<rect x="399.5" y="606.2" class="st1" width="10.9" height="10.5"/>
		<path class="st4" d="M398.7,572.8L398.7,572.8l-6.6,0.1v-34.7c0-0.4,0.3-0.7,0.7-0.7h5.9V572.8z"/>
		<path class="st4" d="M354.5,569.5c0.1,0.4-0.2,0.8-0.6,0.8h-4.2l-1.3-0.1l-17.3,0.2h-5.7c-0.4,0-0.7-0.4-0.7-0.8
			c1.9-10.7,7.7-15.5,15.1-15.4c0,0,0.1,0,0.1,0C347.2,555.3,352,560.6,354.5,569.5z"/>
		<rect x="270.2" y="757.2" class="st4" width="58" height="11.6"/>
		<rect x="270.2" y="745.6" class="st6" width="58" height="11.6"/>
		<rect x="270.2" y="734.4" class="st4" width="58" height="11.3"/>
		<rect x="270.2" y="723.1" class="st6" width="58" height="11.3"/>
		<rect x="270.2" y="711.5" class="st4" width="58" height="11.6"/>
		<polygon class="st4" points="328.2,688.3 328.2,699.9 270.2,699.9 270.2,694.7 270.2,688.3 		"/>
		<rect x="270.2" y="665.1" class="st4" width="58" height="11.6"/>
		<rect x="270.2" y="641.9" class="st4" width="58" height="11.6"/>
		<path class="st4" d="M328.2,618.7v11.6h-58v-10.9c0-0.4,0.3-0.7,0.7-0.7h50.9H328.2z"/>
		<path class="st3" d="M321.8,618.7h-50.9h-0.7v0.7v10.9v11.5v0.1v11.5v8.3c0,0.4-0.3,0.7-0.7,0.7h-21.3v-46.9c0-1,0.3-1.9,0.8-2.7
			c6.3-9.8,16.9-15.7,33.8-15.7C301.1,596.9,316,600.7,321.8,618.7z"/>
		<path class="st3" d="M270.2,688.3v6.4c-37.6,0-75.2,0-112.7,0v33h-8v-65.3h40.4h58.4h21.3c0.4,0,0.7-0.3,0.7-0.7v3.3v0.1v11.6
			V688.3L270.2,688.3z"/>
		<rect x="149.5" y="589.7" class="st7" width="73" height="24.3"/>
		<path class="st7" d="M190.5,635v26.7c0,0.4-0.3,0.7-0.7,0.7h-40.4v-28.1h40.4C190.2,634.3,190.5,634.6,190.5,635z"/>
		<path class="st3" d="M149.5,662.4v65.3H2.5l-1-215h78v30h31v-15h39v62V614v20.3V662.4z M120.5,655.7v-15h-13v15H120.5z
			 M120.5,632.7v-15h-13v15H120.5z M120.5,608.7v-15h-13v15H120.5z M94.5,655.7v-15h-13v15H94.5z M94.5,632.7v-15h-13v15H94.5z
			 M94.5,608.7v-15h-13v15H94.5z M65.5,655.7v-15h-13v15H65.5z M65.5,632.7v-15h-13v15H65.5z M65.5,608.7v-15h-13v15H65.5z
			 M59.7,541.8v-9.4v-0.1v-3.1h-14l-0.4,3.3v9.4H59.7z M40.5,655.7v-15h-13v15H40.5z M40.5,632.7v-15h-13v15H40.5z M40.5,608.7v-15
			h-13v15H40.5z"/>
		<rect x="107.5" y="640.7" class="st1" width="13" height="15"/>
		<rect x="107.5" y="617.7" class="st1" width="13" height="15"/>
		<rect x="107.5" y="593.7" class="st1" width="13" height="15"/>
		<rect x="81.5" y="640.7" class="st1" width="13" height="15"/>
		<rect x="81.5" y="617.7" class="st1" width="13" height="15"/>
		<rect x="81.5" y="593.7" class="st1" width="13" height="15"/>
		<rect x="52.5" y="640.7" class="st1" width="13" height="15"/>
		<rect x="52.5" y="617.7" class="st1" width="13" height="15"/>
		<rect x="52.5" y="593.7" class="st1" width="13" height="15"/>
		<polygon class="st1" points="59.7,532.4 59.7,541.8 45.3,541.8 45.3,532.4 45.7,529.2 59.7,529.2 59.7,532.3 		"/>
		<rect x="27.5" y="640.7" class="st1" width="13" height="15"/>
		<rect x="27.5" y="617.7" class="st1" width="13" height="15"/>
		<rect x="27.5" y="593.7" class="st1" width="13" height="15"/>
	</g>
	<g>
	</g>
</g>
<g id="Layer_2">
</g>
<path class="st8" d="M447.1,452.1c-28.5-3-41.9-16.3-42.7-39c1.9-26.3,15.9-40.6,42.7-42.4l154.8,0.8c31.2,3.5,40,16.5,43.5,41.6
	c3.1,32.4-15.6,40.4-41.9,39.8l-0.2,44l-30.4-45.2L447.1,452.1z"/>
<path class="st8" d="M1737.5,470.3c26.7-2.3,39.2-12.4,39.9-29.6c-1.7-20-14.9-30.9-39.9-32.2l-144.8,0.6
	c-29.2,2.6-37.4,12.6-40.7,31.6c-2.9,24.6,14.6,30.7,39.2,30.2c-1.6,15.7-3.1,31.5-4.7,47.2c11.1-16,22.2-32.1,33.3-48.1
	L1737.5,470.3z"/>
<text transform="matrix(0.7939 0 0 1 429.1035 396.4283)"><tspan x="0" y="0" class="st9 st10 st11">John:</tspan><tspan x="36.7" y="0" class="st12 st10 st11">  </tspan><tspan x="43.7" y="0" class="st10 st11">I’m going to college with my</tspan><tspan x="0" y="19.7" class="st10 st11">car and I have one seat left.</tspan><tspan x="0" y="39.4" class="st10 st11">Who wanna go  with me ?</tspan><tspan x="0" y="59.1" class="st10 st11"> </tspan><tspan x="0" y="98.6" class="st10 st11"> </tspan></text>
<text transform="matrix(1 0 0 1 1573.2601 437.8248)" class="st9 st10 st13">Anna:</text>
<text transform="matrix(1 0 0 1 1609.4486 437.9633)" class="st10 st13">Here is my location,</text>
<text transform="matrix(1 0 0 1 1723.494 437.8247)" class="st10 st13">can you</text>
<text transform="matrix(0.8773 0 0 1 1609.3718 454.9638)" class="st10 st14">pick me up ?</text>
</svg>
